<svg width="182" height="42" viewBox="0 0 182 42" fill="none" xmlns="http://www.w3.org/2000/svg">
<path fill-rule="evenodd" clip-rule="evenodd" d="M106.148 1H110.26V31.8088L107.661 31.8456L107.257 31.3235C107.029 31.0368 104.518 27.8015 96.4924 17.4706L96.4557 41H92.3437V10.2647L95.6847 10.2721L106.111 23.4926L106.148 1ZM1 10.2647L5.72873 10.3015L12.418 19.5074L19.0999 10.2721L23.7625 10.2647V31.8824H19.6506L19.6139 16.4191L12.7117 25.6324L11.904 25.625L5.14865 16.3603L5.11194 31.8824H1V10.2647ZM170.507 10.3015C171.212 10.3162 171.932 10.375 172.306 10.4485C172.644 10.5221 173.275 10.6912 173.701 10.8309C174.12 10.9706 174.817 11.2647 175.243 11.4853C175.662 11.7132 176.271 12.0809 176.594 12.3088C176.917 12.5441 177.498 13.0441 177.879 13.4338C178.268 13.8162 178.768 14.3971 179.003 14.7206C179.23 15.0368 179.598 15.6544 179.818 16.0735C180.038 16.5 180.324 17.1471 180.449 17.5074C180.574 17.875 180.75 18.5 180.838 18.9044C180.971 19.5147 181 19.8897 181 21.0368C181 22.125 180.971 22.5735 180.868 23.0588C180.794 23.4044 180.648 23.9485 180.552 24.2721C180.449 24.5956 180.258 25.1103 180.126 25.4118C179.994 25.7206 179.73 26.2279 179.539 26.5515C179.348 26.875 178.981 27.4044 178.731 27.7279C178.474 28.0515 178.041 28.5368 177.762 28.8015C177.49 29.0662 176.976 29.4926 176.638 29.75C176.293 30 175.75 30.3529 175.427 30.5294C175.104 30.7059 174.487 30.9779 174.068 31.1397C173.643 31.3015 172.945 31.5074 172.526 31.6029C171.858 31.75 171.557 31.7721 170.287 31.7721C169.141 31.7721 168.679 31.7426 168.194 31.6397C167.849 31.5662 167.24 31.3971 166.836 31.2647C166.432 31.1324 165.837 30.8897 165.514 30.7279C165.191 30.5662 164.611 30.2206 164.229 29.9706C163.789 29.6765 163.216 29.1912 162.68 28.6544C162.122 28.0956 161.659 27.5515 161.343 27.0662C161.079 26.6618 160.712 26.0221 160.536 25.6324C160.352 25.25 160.139 24.7206 160.051 24.4559C159.963 24.1985 159.831 23.6838 159.743 23.3162C159.64 22.875 159.581 22.2647 159.552 21.4779C159.522 20.7279 159.537 20.0662 159.596 19.6397C159.647 19.2794 159.765 18.6691 159.868 18.2794C159.97 17.8971 160.183 17.2721 160.345 16.8824C160.499 16.5 160.815 15.8897 161.028 15.5221C161.248 15.1618 161.637 14.5956 161.894 14.2721C162.159 13.9485 162.628 13.4412 162.952 13.1471C163.267 12.8529 163.811 12.4191 164.156 12.1838C164.494 11.9485 165.088 11.5956 165.477 11.4044C165.859 11.2132 166.505 10.9485 166.909 10.8162C167.313 10.6765 167.923 10.5221 168.268 10.4559C168.605 10.3971 168.987 10.3309 169.112 10.3088C169.23 10.2941 169.861 10.2868 170.507 10.3015ZM168.194 10.8088C167.886 10.875 167.379 11.0074 167.056 11.1176C166.733 11.2206 166.168 11.4485 165.808 11.6176C165.441 11.7868 164.846 12.125 164.486 12.3676C164.126 12.6103 163.502 13.1176 163.098 13.5C162.702 13.8897 162.166 14.4853 161.909 14.8235C161.652 15.1691 161.255 15.8015 161.035 16.2206C160.815 16.6471 160.521 17.3456 160.382 17.7647C160.235 18.1912 160.066 18.8529 159.992 19.2353C159.912 19.7059 159.868 20.3088 159.868 21.0735C159.868 21.8603 159.912 22.4265 160 22.875C160.066 23.2426 160.227 23.8529 160.352 24.2353C160.47 24.625 160.697 25.1985 160.852 25.5221C161.006 25.8456 161.299 26.375 161.512 26.6985C161.725 27.0221 162.114 27.5515 162.379 27.8676C162.65 28.1838 163.135 28.6691 163.458 28.9412C163.781 29.2132 164.354 29.6471 164.743 29.8897C165.125 30.1397 165.786 30.4926 166.212 30.6691C166.63 30.8456 167.328 31.0809 167.754 31.1838C168.172 31.2868 168.87 31.4044 169.296 31.4485C169.736 31.5 170.39 31.5147 170.838 31.4853C171.256 31.4559 171.917 31.375 172.306 31.2941C172.688 31.2206 173.297 31.0515 173.665 30.9265C174.024 30.8015 174.619 30.5441 174.986 30.3603C175.346 30.1838 175.889 29.8603 176.191 29.6544C176.492 29.4412 177.072 28.9632 177.468 28.5735C177.872 28.1912 178.408 27.5956 178.665 27.25C178.922 26.9118 179.296 26.3162 179.495 25.9265C179.693 25.5441 179.943 25 180.053 24.7132C180.156 24.4338 180.324 23.8676 180.42 23.4632C180.523 23.0588 180.633 22.3529 180.67 21.8824C180.706 21.3897 180.714 20.7132 180.677 20.2647C180.64 19.8456 180.559 19.25 180.501 18.9412C180.435 18.6397 180.295 18.125 180.192 17.8015C180.089 17.4779 179.869 16.9338 179.708 16.5882C179.546 16.25 179.201 15.6324 178.929 15.2279C178.614 14.75 178.158 14.2059 177.63 13.6838C177.123 13.1691 176.55 12.6912 176.088 12.3824C175.684 12.1103 175.067 11.7647 174.729 11.6029C174.384 11.4412 173.782 11.2132 173.386 11.0882C172.996 10.9559 172.365 10.8088 171.99 10.75C171.616 10.6912 171.065 10.6324 170.764 10.6176C170.456 10.6029 169.883 10.6176 169.479 10.6471C169.075 10.6765 168.495 10.75 168.194 10.8088ZM60.5496 9.71324C61.7539 9.73529 62.1871 9.76471 62.7525 9.89706C63.1343 9.97794 63.7437 10.1544 64.1109 10.2794C64.4707 10.4044 65.1168 10.6765 65.5427 10.8971C65.9613 11.1103 66.5927 11.4853 66.9378 11.7279C67.2756 11.9779 67.7602 12.3529 68.4431 12.9779L65.8511 15.5956L65.4105 15.2279C65.1682 15.0294 64.7056 14.7132 64.3899 14.5294C64.0742 14.3529 63.5308 14.0956 63.193 13.9706C62.8479 13.8382 62.2825 13.6765 61.9448 13.6029C61.5115 13.5074 61.0122 13.4706 60.3294 13.4706C59.7787 13.4706 59.1398 13.5147 58.8975 13.5662C58.6552 13.6176 58.2367 13.7279 57.9797 13.8088C57.7153 13.8897 57.2381 14.0956 56.915 14.2647C56.5919 14.4338 56.0926 14.75 55.8136 14.9779C55.5272 15.1985 55.1454 15.5662 54.9618 15.7868C54.7783 16.0074 54.5213 16.3382 54.4038 16.5147C54.2789 16.6985 54.0587 17.0809 53.9192 17.3603C53.7796 17.6471 53.574 18.1618 53.4639 18.5C53.3611 18.8456 53.2216 19.4265 53.1555 19.7868C53.0674 20.2794 53.0527 20.7426 53.0821 21.5882C53.1041 22.4044 53.1628 22.9044 53.273 23.3529C53.3611 23.6985 53.53 24.2132 53.6548 24.4926C53.7723 24.7794 54.0513 25.2721 54.2643 25.5956C54.4772 25.9191 54.881 26.3971 55.1601 26.6544C55.4391 26.9118 55.909 27.2647 56.2174 27.4412C56.5185 27.625 57.0325 27.8603 57.3556 27.9779C57.6786 28.0956 58.2073 28.2426 58.5304 28.3015C58.8535 28.3676 59.4262 28.4412 59.8154 28.4632C60.2045 28.4926 60.8287 28.4779 61.2472 28.4338C61.6511 28.3897 62.2238 28.2868 62.5322 28.1985C62.8332 28.1176 63.3472 27.9191 63.6703 27.7574C63.9934 27.5882 64.4633 27.3162 65.1756 26.8088V22.9853H59.7419V19.3088H68.9938V28.4632L68.2008 29.2353C67.7676 29.6618 67.1141 30.2132 66.7543 30.4559C66.3871 30.7059 65.8952 31.0074 65.6529 31.1324C65.4105 31.2574 64.9626 31.4559 64.6616 31.5735C64.3532 31.6985 63.8245 31.8676 63.4867 31.9559C63.1416 32.0441 62.5102 32.1618 62.0916 32.2206C61.6657 32.2794 60.8948 32.3235 60.3808 32.3235C59.8668 32.3235 59.1252 32.2868 58.7286 32.25C58.3395 32.2059 57.686 32.1029 57.2821 32.0221C56.8783 31.9412 56.2468 31.7794 55.887 31.6544C55.5199 31.5294 54.9398 31.3015 54.602 31.1397C54.2569 30.9779 53.6915 30.6544 53.3538 30.4265C53.0086 30.1985 52.4139 29.6985 52.0247 29.3088C51.6356 28.9265 51.1289 28.3162 50.8793 27.9485C50.6369 27.5882 50.3139 27.0221 50.1597 26.6985C50.0055 26.375 49.7705 25.7794 49.6383 25.375C49.5062 24.9706 49.3446 24.3971 49.2859 24.0882C49.2271 23.7868 49.139 23.2574 49.095 22.9118C49.0509 22.5735 49.0215 21.8456 49.0215 21.2941C49.0215 20.75 49.0656 19.9559 49.1243 19.5294C49.1831 19.1103 49.2932 18.4779 49.374 18.1324C49.4548 17.7941 49.631 17.2132 49.7558 16.8456C49.8806 16.4853 50.123 15.9044 50.2918 15.5588C50.4534 15.2206 50.7911 14.6397 51.0335 14.2721C51.2758 13.9118 51.7751 13.3015 52.1349 12.9265C52.502 12.5441 53.0821 12.0221 53.4272 11.7647C53.765 11.5 54.4478 11.0956 54.9324 10.8603C55.4171 10.6176 56.0779 10.3456 56.401 10.2426C56.7241 10.1471 57.2307 10.0074 57.5391 9.94118C57.8402 9.875 58.3028 9.78677 58.5671 9.75735C58.8241 9.72059 59.7199 9.69853 60.5496 9.71324ZM34.9528 10.2647H39.4393L43.9918 20.4265C46.4956 26.0221 48.6691 30.8676 49.095 31.8088H44.5792L43.4925 29.3676C42.8977 28.0221 41.8403 25.5956 41.1354 23.9779C40.4379 22.3603 39.2777 19.6765 38.5508 18.0074C37.8239 16.3382 37.2144 14.9779 37.1997 14.9779C37.1777 14.9779 36.4508 16.6029 35.5843 18.5956C34.7252 20.5882 33.4109 23.6029 32.6766 25.3015C31.9423 27 30.9951 29.1544 29.8056 31.7721L25.3045 31.8088L25.5762 31.1985C25.7304 30.8676 27.8965 26.0221 30.4003 20.4265L34.9528 10.2647ZM72.1512 10.2647H88.3052V14.2353H76.2631V19.1618H87.8647V22.9853H76.2631V27.7647H88.3052V31.8088H72.1512V10.2647ZM113.638 10.2647L118.286 10.2721C120.9 10.2721 123.213 10.3015 123.587 10.3456C123.954 10.3824 124.512 10.4706 124.835 10.5368C125.158 10.6029 125.724 10.75 126.084 10.875C126.451 10.9926 127.06 11.25 127.442 11.4485C127.824 11.6397 128.389 11.9706 128.69 12.1838C128.991 12.3971 129.52 12.8603 129.865 13.2059C130.21 13.5515 130.702 14.1471 130.959 14.5294C131.216 14.9191 131.569 15.5294 131.738 15.8897C131.906 16.2574 132.134 16.8162 132.244 17.1397C132.347 17.4632 132.501 18.0294 132.582 18.3897C132.663 18.7574 132.766 19.5147 132.817 20.0809C132.89 20.8897 132.89 21.3309 132.817 22.1029C132.766 22.6544 132.648 23.4485 132.553 23.8676C132.457 24.2941 132.288 24.8897 132.178 25.1912C132.068 25.5 131.804 26.0956 131.583 26.5147C131.37 26.9412 130.981 27.5735 130.724 27.9118C130.467 28.2574 129.975 28.8015 129.638 29.1176C129.3 29.4412 128.756 29.875 128.433 30.0882C128.11 30.3015 127.648 30.5735 127.405 30.6912C127.163 30.8162 126.634 31.0294 126.23 31.1691C125.827 31.3162 125.136 31.5074 124.689 31.6029C123.895 31.7721 123.8 31.7721 113.638 31.8088V10.2647ZM117.676 27.8382C122.273 27.8456 123.08 27.8162 123.55 27.7353C123.895 27.6765 124.424 27.5368 124.725 27.4338C125.026 27.3235 125.489 27.1103 125.753 26.9632C126.018 26.8088 126.443 26.4926 126.7 26.25C126.957 26.0147 127.31 25.6176 127.479 25.375C127.655 25.1324 127.89 24.7353 128.015 24.4926C128.132 24.25 128.316 23.7868 128.419 23.4632C128.521 23.1397 128.646 22.5809 128.698 22.2132C128.749 21.8235 128.771 21.1838 128.742 20.6324C128.712 19.9926 128.646 19.4926 128.514 18.9779C128.411 18.5735 128.176 17.9485 128 17.5809C127.817 17.2206 127.479 16.6912 127.244 16.4044C127.001 16.125 126.612 15.7353 126.377 15.5441C126.135 15.3456 125.724 15.0809 125.459 14.9412C125.195 14.8088 124.718 14.6103 124.395 14.5074C124.072 14.4118 123.514 14.2941 123.147 14.2426C122.787 14.1985 121.406 14.1618 120.085 14.1618H117.676V27.8382ZM142.891 10.2647L147.378 10.2721L152.15 20.9338C154.779 26.7941 156.93 31.6397 156.945 31.6985C156.96 31.7941 156.673 31.8088 152.518 31.8162L151.622 29.8088C151.13 28.7059 150.249 26.6985 149.669 25.3382C149.081 23.9853 147.84 21.125 146.908 18.9779C145.968 16.8382 145.182 15.0588 145.153 15.0294C145.123 15 144.595 16.1471 143.971 17.5662C143.354 18.9926 142.091 21.8971 141.173 24.0147C140.255 26.1397 139.102 28.7574 137.729 31.7721L135.49 31.7941C133.375 31.8088 133.25 31.8015 133.302 31.6838C133.338 31.6103 135.512 26.7647 138.126 20.9118L142.891 10.2647ZM37.2071 25.5588C39.3585 25.5588 40.5113 25.5809 40.5113 25.6324C40.5113 25.6691 39.7917 26.9632 38.9106 28.5C37.9267 30.2206 37.2732 31.2868 37.2071 31.2868C37.141 31.2868 36.4801 30.2206 35.4962 28.5C34.6224 26.9632 33.9028 25.6691 33.9028 25.6324C33.9028 25.5809 35.0483 25.5588 37.2071 25.5588ZM145.145 25.5588C147.297 25.5588 148.45 25.5809 148.45 25.6324C148.45 25.6691 147.715 26.9779 146.812 28.5368C145.916 30.0956 145.153 31.3676 145.123 31.3676C145.094 31.3676 144.345 30.1029 143.457 28.5515C142.568 27.0074 141.841 25.6985 141.841 25.6471C141.841 25.5809 142.546 25.5588 145.145 25.5588ZM170.478 12.7353C170.617 12.75 170.962 12.7794 171.249 12.7941C171.528 12.8162 172.079 12.9191 172.46 13.0221C172.842 13.1324 173.437 13.3456 173.782 13.5074C174.127 13.6691 174.612 13.9412 175.331 14.4191V16.3309C175.324 17.3824 175.309 18.2574 175.287 18.2794C175.265 18.3015 175.045 18.2574 174.788 18.1838C174.45 18.0809 174.179 18.0515 173.745 18.0809C173.386 18.1029 172.996 18.1765 172.754 18.2794C172.534 18.3676 172.24 18.5147 172.108 18.6176C171.976 18.7132 171.858 18.7941 171.836 18.7941C171.814 18.7941 171.609 18.6544 171.374 18.4779C171.146 18.3088 170.757 18.1029 170.515 18.0294C170.199 17.9338 169.942 17.9044 169.633 17.9265C169.391 17.9485 169.024 18.0368 168.826 18.125C168.62 18.2132 168.334 18.3897 167.893 18.7574L167.695 18.5221C167.592 18.3897 167.357 18.2132 167.174 18.125C166.99 18.0294 166.608 17.9265 166.329 17.8824C165.911 17.8235 165.72 17.8309 165.301 17.9338C165.015 18.0074 164.662 18.1471 164.508 18.2426C164.361 18.3456 164.134 18.5662 164.009 18.7353C163.891 18.9118 163.715 19.2353 163.627 19.4559C163.473 19.8456 163.466 19.9706 163.444 22.6691C163.429 25.1176 163.414 25.4853 163.319 25.4853C163.253 25.4853 163.084 25.2426 162.922 24.9118C162.761 24.6029 162.555 24.1103 162.452 23.8309C162.349 23.5441 162.21 23.0368 162.137 22.6912C162.048 22.2794 162.004 21.7426 162.004 21.1103C161.997 20.5809 162.041 19.9044 162.1 19.6029C162.151 19.3015 162.276 18.8015 162.379 18.5C162.474 18.1985 162.695 17.6691 162.863 17.3235C163.032 16.9779 163.355 16.4412 163.59 16.125C163.825 15.8162 164.185 15.3824 164.398 15.1691C164.611 14.9559 165.015 14.6103 165.301 14.3971C165.58 14.1838 166.131 13.8456 166.513 13.6471C166.895 13.4559 167.475 13.2132 167.798 13.1103C168.121 13.0074 168.635 12.8897 168.936 12.8456C169.237 12.8015 169.648 12.75 169.854 12.7426C170.052 12.7279 170.338 12.7279 170.478 12.7353ZM177.196 16.5147C177.263 16.5147 177.446 16.8015 177.659 17.2279C177.857 17.625 178.092 18.1618 178.173 18.4265C178.261 18.6912 178.364 19.0588 178.401 19.25C178.445 19.4485 178.511 19.9118 178.555 20.2794C178.599 20.7279 178.599 21.2353 178.555 21.7353C178.511 22.1618 178.423 22.7574 178.342 23.0588C178.268 23.3603 178.1 23.875 177.967 24.1985C177.843 24.5221 177.586 25.0368 177.409 25.3382C177.226 25.6397 176.851 26.1544 176.58 26.4779C176.301 26.8015 175.845 27.25 175.574 27.4706C175.295 27.6912 174.803 28.0294 174.48 28.2279C174.157 28.4191 173.628 28.6765 173.305 28.8015C172.982 28.9265 172.438 29.0882 172.093 29.1618C171.748 29.2426 171.168 29.3235 170.808 29.3529C170.412 29.3824 169.839 29.3676 169.376 29.3088C168.951 29.2647 168.326 29.1397 167.981 29.0368C167.636 28.9412 167.108 28.7426 166.806 28.6029C166.505 28.4632 166.013 28.1912 165.191 27.6544V23.9559C165.191 21.0588 165.213 20.2132 165.287 20.0221C165.338 19.8971 165.477 19.7059 165.595 19.6103C165.779 19.4706 165.881 19.4485 166.19 19.4632C166.476 19.4853 166.623 19.5368 166.762 19.6765C166.873 19.7794 166.99 19.9779 167.027 20.1176C167.063 20.2574 167.1 21.2574 167.1 24.3088H168.789V22.2132C168.789 20.5 168.804 20.0735 168.899 19.8971C168.958 19.7721 169.112 19.625 169.244 19.5588C169.376 19.4926 169.633 19.4412 169.817 19.4412C170.001 19.4485 170.221 19.5 170.309 19.5662C170.404 19.625 170.529 19.8015 170.595 19.9485C170.676 20.1471 170.72 20.4853 170.728 21.1103C170.742 21.8162 170.779 22.0735 170.904 22.3971C170.999 22.6176 171.19 22.9632 171.344 23.1691C171.498 23.3676 171.785 23.6618 171.983 23.8088C172.181 23.9632 172.534 24.1618 172.754 24.25C173.077 24.3824 173.305 24.4118 173.929 24.4191C174.649 24.4191 174.729 24.4044 175.192 24.1765C175.464 24.0515 175.875 23.7647 176.102 23.5515C176.323 23.3456 176.587 23.0368 176.675 22.875C176.771 22.7132 176.903 22.3971 176.969 22.1765C177.064 21.8382 177.086 21.3529 177.086 19.1397C177.086 16.8529 177.101 16.5147 177.196 16.5147ZM173.907 19.6765C174.083 19.6765 174.347 19.7279 174.494 19.7868C174.649 19.8529 174.869 19.9926 174.986 20.1029C175.096 20.2132 175.258 20.4338 175.331 20.5956C175.405 20.7574 175.464 21.0588 175.471 21.2721C175.471 21.5074 175.412 21.7721 175.331 21.9338C175.258 22.0882 175.082 22.3162 174.95 22.4338C174.81 22.5588 174.568 22.7059 174.406 22.7574C174.245 22.8162 173.944 22.8456 173.731 22.8309C173.466 22.8088 173.261 22.7353 173.033 22.5809C172.828 22.4338 172.644 22.2206 172.504 21.9559C172.336 21.625 172.306 21.4853 172.336 21.1838C172.35 20.9779 172.431 20.6838 172.519 20.5221C172.6 20.3603 172.725 20.1691 172.798 20.1029C172.872 20.0368 173.085 19.9118 173.268 19.8309C173.452 19.75 173.738 19.6765 173.907 19.6765Z" fill="#2B579A" stroke="#2B579A" stroke-width="0.0836257"/>
</svg>
